# MagicaVoxel @ Ephtracy

# group
o 

# material
mtllib cv.mtl
usemtl palette

# normals
vn -1 0 0
vn 1 0 0
vn 0 0 1
vn 0 0 -1
vn 0 -1 0
vn 0 1 0

# texcoords
vt 0.587891 0.5
vt 0.705078 0.5

# verts
v 0 2 0
v 0 2 -0.5
v 0 6 0
v 0 6 -0.5
v 2.2 4.7 0
v 2.2 4.7 -0.1
v 2.2 4.9 0
v 2.2 4.9 -0.1
v 2.4 4.9 0
v 2.4 4.9 -0.1
v 2.4 5.4 0
v 2.4 5.4 -0.1
v 2.7 4 0
v 2.7 4 -0.1
v 2.7 4.7 0
v 2.7 4.7 -0.1
v 3.3 3 0
v 3.3 3 -0.1
v 3.3 3.1 0
v 3.3 3.1 -0.1
v 3.3 3.3 0
v 3.3 3.3 -0.1
v 3.3 3.4 0
v 3.3 3.4 -0.1
v 3.3 3.6 0
v 3.3 3.6 -0.1
v 3.3 3.7 0
v 3.3 3.7 -0.1
v 0.7 3 0
v 0.7 3 -0.1
v 0.7 3.1 0
v 0.7 3.1 -0.1
v 0.7 3.3 0
v 0.7 3.3 -0.1
v 0.7 3.4 0
v 0.7 3.4 -0.1
v 0.7 3.6 0
v 0.7 3.6 -0.1
v 0.7 3.7 0
v 0.7 3.7 -0.1
v 1.4 4 0
v 1.4 4 -0.1
v 1.4 4.7 0
v 1.4 4.7 -0.1
v 1.7 4.9 0
v 1.7 4.9 -0.1
v 1.7 5.4 0
v 1.7 5.4 -0.1
v 1.9 4.7 0
v 1.9 4.7 -0.1
v 1.9 4.9 0
v 1.9 4.9 -0.1
v 4 2 0
v 4 2 -0.5
v 4 6 0
v 4 6 -0.5
v 0 2 0
v 0 6 0
v 0.5 2.3 0
v 0.5 2.8 0
v 0.6 2.3 0
v 0.6 2.4 0
v 0.6 2.5 0
v 0.6 2.6 0
v 0.7 2.3 0
v 0.7 2.4 0
v 0.7 3 0
v 0.7 3.1 0
v 0.7 3.3 0
v 0.7 3.4 0
v 0.7 3.6 0
v 0.7 3.7 0
v 0.8 2.3 0
v 0.8 2.5 0
v 0.8 2.6 0
v 0.8 2.8 0
v 1 2.3 0
v 1 2.8 0
v 1.1 2.4 0
v 1.1 2.5 0
v 1.1 2.6 0
v 1.1 2.7 0
v 1.3 2.3 0
v 1.3 2.4 0
v 1.3 2.5 0
v 1.3 2.6 0
v 1.3 2.7 0
v 1.3 2.8 0
v 1.4 4 0
v 1.4 4.7 0
v 1.5 2.3 0
v 1.5 2.4 0
v 1.5 2.5 0
v 1.5 2.8 0
v 1.6 2.6 0
v 1.6 2.7 0
v 1.7 2.4 0
v 1.7 2.5 0
v 1.7 4.9 0
v 1.7 5.4 0
v 1.8 2.3 0
v 1.8 2.6 0
v 1.8 2.7 0
v 1.8 2.8 0
v 1.9 4.7 0
v 1.9 4.9 0
v 2 2.3 0
v 2 2.8 0
v 2.1 2.4 0
v 2.1 2.8 0
v 2.2 4.7 0
v 2.2 4.9 0
v 2.3 2.4 0
v 2.3 2.8 0
v 2.4 2.3 0
v 2.4 2.8 0
v 2.4 4.9 0
v 2.4 5.4 0
v 2.6 2.3 0
v 2.6 2.8 0
v 2.7 2.3 0
v 2.7 2.7 0
v 2.7 4 0
v 2.7 4.7 0
v 2.8 2.6 0
v 2.8 2.7 0
v 2.9 2.6 0
v 2.9 2.7 0
v 3 2.3 0
v 3 2.7 0
v 3.1 2.3 0
v 3.1 2.8 0
v 3.2 2.3 0
v 3.2 2.8 0
v 3.3 2.4 0
v 3.3 2.5 0
v 3.3 2.6 0
v 3.3 2.7 0
v 3.3 3 0
v 3.3 3.1 0
v 3.3 3.3 0
v 3.3 3.4 0
v 3.3 3.6 0
v 3.3 3.7 0
v 3.5 2.3 0
v 3.5 2.4 0
v 3.5 2.5 0
v 3.5 2.6 0
v 3.5 2.7 0
v 3.5 2.8 0
v 4 2 0
v 4 6 0
v 0.7 3 -0.1
v 0.7 3.1 -0.1
v 0.7 3.3 -0.1
v 0.7 3.4 -0.1
v 0.7 3.6 -0.1
v 0.7 3.7 -0.1
v 1.4 4 -0.1
v 1.4 4.7 -0.1
v 1.7 4.9 -0.1
v 1.7 5.4 -0.1
v 1.9 4.7 -0.1
v 1.9 4.9 -0.1
v 2.2 4.7 -0.1
v 2.2 4.9 -0.1
v 2.4 4.9 -0.1
v 2.4 5.4 -0.1
v 2.7 4 -0.1
v 2.7 4.7 -0.1
v 3.3 3 -0.1
v 3.3 3.1 -0.1
v 3.3 3.3 -0.1
v 3.3 3.4 -0.1
v 3.3 3.6 -0.1
v 3.3 3.7 -0.1
v 0 2 -0.5
v 0 6 -0.5
v 4 2 -0.5
v 4 6 -0.5
v 0 2 0
v 4 2 0
v 0 2 -0.5
v 4 2 -0.5
v 0.7 3.1 0
v 3.3 3.1 0
v 0.7 3.1 -0.1
v 3.3 3.1 -0.1
v 0.7 3.4 0
v 3.3 3.4 0
v 0.7 3.4 -0.1
v 3.3 3.4 -0.1
v 0.7 3.7 0
v 3.3 3.7 0
v 0.7 3.7 -0.1
v 3.3 3.7 -0.1
v 1.4 4.7 0
v 1.9 4.7 0
v 2.2 4.7 0
v 2.7 4.7 0
v 1.4 4.7 -0.1
v 1.9 4.7 -0.1
v 2.2 4.7 -0.1
v 2.7 4.7 -0.1
v 1.7 5.4 0
v 2.4 5.4 0
v 1.7 5.4 -0.1
v 2.4 5.4 -0.1
v 0.7 3 0
v 3.3 3 0
v 0.7 3 -0.1
v 3.3 3 -0.1
v 0.7 3.3 0
v 3.3 3.3 0
v 0.7 3.3 -0.1
v 3.3 3.3 -0.1
v 0.7 3.6 0
v 3.3 3.6 0
v 0.7 3.6 -0.1
v 3.3 3.6 -0.1
v 1.4 4 0
v 2.7 4 0
v 1.4 4 -0.1
v 2.7 4 -0.1
v 1.7 4.9 0
v 1.9 4.9 0
v 2.2 4.9 0
v 2.4 4.9 0
v 1.7 4.9 -0.1
v 1.9 4.9 -0.1
v 2.2 4.9 -0.1
v 2.4 4.9 -0.1
v 0 6 0
v 4 6 0
v 0 6 -0.5
v 4 6 -0.5

# faces
f 3/1/1 2/1/1 1/1/1
f 4/1/1 2/1/1 3/1/1
f 7/1/1 6/1/1 5/1/1
f 8/1/1 6/1/1 7/1/1
f 11/1/1 10/1/1 9/1/1
f 12/1/1 10/1/1 11/1/1
f 15/1/1 14/1/1 13/1/1
f 16/1/1 14/1/1 15/1/1
f 19/1/1 18/1/1 17/1/1
f 20/1/1 18/1/1 19/1/1
f 23/1/1 22/1/1 21/1/1
f 24/1/1 22/1/1 23/1/1
f 27/1/1 26/1/1 25/1/1
f 28/1/1 26/1/1 27/1/1
f 29/1/2 30/1/2 31/1/2
f 31/1/2 30/1/2 32/1/2
f 33/1/2 34/1/2 35/1/2
f 35/1/2 34/1/2 36/1/2
f 37/1/2 38/1/2 39/1/2
f 39/1/2 38/1/2 40/1/2
f 41/1/2 42/1/2 43/1/2
f 43/1/2 42/1/2 44/1/2
f 45/1/2 46/1/2 47/1/2
f 47/1/2 46/1/2 48/1/2
f 49/1/2 50/1/2 51/1/2
f 51/1/2 50/1/2 52/1/2
f 53/1/2 54/1/2 55/1/2
f 55/1/2 54/1/2 56/1/2
f 59/1/3 58/1/3 57/1/3
f 60/1/3 58/1/3 59/1/3
f 61/1/3 59/1/3 57/1/3
f 61/2/3 60/2/3 59/2/3
f 62/2/3 60/2/3 61/2/3
f 63/2/3 60/2/3 62/2/3
f 64/2/3 60/2/3 63/2/3
f 65/1/3 61/1/3 57/1/3
f 65/1/3 62/1/3 61/1/3
f 66/2/3 63/2/3 62/2/3
f 66/1/3 62/1/3 65/1/3
f 67/1/3 58/1/3 60/1/3
f 68/1/3 58/1/3 67/1/3
f 69/1/3 58/1/3 68/1/3
f 70/1/3 58/1/3 69/1/3
f 71/1/3 58/1/3 70/1/3
f 72/1/3 58/1/3 71/1/3
f 73/1/3 65/1/3 57/1/3
f 73/2/3 66/2/3 65/2/3
f 74/2/3 63/2/3 66/2/3
f 74/2/3 66/2/3 73/2/3
f 74/1/3 64/1/3 63/1/3
f 75/2/3 60/2/3 64/2/3
f 75/1/3 64/1/3 74/1/3
f 76/1/3 67/1/3 60/1/3
f 76/2/3 60/2/3 75/2/3
f 77/1/3 73/1/3 57/1/3
f 77/1/3 74/1/3 73/1/3
f 77/1/3 76/1/3 75/1/3
f 77/1/3 75/1/3 74/1/3
f 78/1/3 67/1/3 76/1/3
f 78/1/3 76/1/3 77/1/3
f 79/2/3 78/2/3 77/2/3
f 80/2/3 78/2/3 79/2/3
f 81/2/3 78/2/3 80/2/3
f 82/2/3 78/2/3 81/2/3
f 83/1/3 77/1/3 57/1/3
f 83/2/3 79/2/3 77/2/3
f 84/1/3 80/1/3 79/1/3
f 84/2/3 79/2/3 83/2/3
f 85/2/3 81/2/3 80/2/3
f 85/1/3 80/1/3 84/1/3
f 86/1/3 82/1/3 81/1/3
f 86/2/3 81/2/3 85/2/3
f 87/2/3 78/2/3 82/2/3
f 87/1/3 82/1/3 86/1/3
f 88/1/3 67/1/3 78/1/3
f 88/2/3 78/2/3 87/2/3
f 89/1/3 58/1/3 72/1/3
f 90/1/3 58/1/3 89/1/3
f 91/1/3 86/1/3 85/1/3
f 91/1/3 87/1/3 86/1/3
f 91/1/3 85/1/3 84/1/3
f 91/1/3 88/1/3 87/1/3
f 91/1/3 84/1/3 83/1/3
f 91/1/3 83/1/3 57/1/3
f 92/1/3 88/1/3 91/1/3
f 93/1/3 88/1/3 92/1/3
f 94/1/3 67/1/3 88/1/3
f 94/1/3 88/1/3 93/1/3
f 95/2/3 94/2/3 93/2/3
f 96/2/3 94/2/3 95/2/3
f 97/1/3 93/1/3 92/1/3
f 97/2/3 92/2/3 91/2/3
f 98/2/3 95/2/3 93/2/3
f 98/1/3 93/1/3 97/1/3
f 99/1/3 58/1/3 90/1/3
f 100/1/3 58/1/3 99/1/3
f 101/1/3 91/1/3 57/1/3
f 101/2/3 97/2/3 91/2/3
f 101/2/3 98/2/3 97/2/3
f 102/2/3 95/2/3 98/2/3
f 102/2/3 98/2/3 101/2/3
f 102/1/3 96/1/3 95/1/3
f 103/2/3 94/2/3 96/2/3
f 103/1/3 96/1/3 102/1/3
f 104/1/3 67/1/3 94/1/3
f 104/2/3 94/2/3 103/2/3
f 105/1/3 99/1/3 90/1/3
f 106/1/3 99/1/3 105/1/3
f 107/1/3 101/1/3 57/1/3
f 107/1/3 102/1/3 101/1/3
f 107/1/3 103/1/3 102/1/3
f 107/1/3 104/1/3 103/1/3
f 108/1/3 67/1/3 104/1/3
f 108/1/3 104/1/3 107/1/3
f 109/2/3 108/2/3 107/2/3
f 110/1/3 67/1/3 108/1/3
f 110/2/3 108/2/3 109/2/3
f 113/2/3 109/2/3 107/2/3
f 113/1/3 110/1/3 109/1/3
f 114/1/3 67/1/3 110/1/3
f 114/1/3 110/1/3 113/1/3
f 115/1/3 107/1/3 57/1/3
f 115/2/3 113/2/3 107/2/3
f 115/2/3 114/2/3 113/2/3
f 116/1/3 67/1/3 114/1/3
f 116/2/3 114/2/3 115/2/3
f 117/1/3 112/1/3 111/1/3
f 118/1/3 58/1/3 100/1/3
f 119/1/3 116/1/3 115/1/3
f 119/1/3 115/1/3 57/1/3
f 120/1/3 67/1/3 116/1/3
f 120/1/3 116/1/3 119/1/3
f 121/1/3 119/1/3 57/1/3
f 121/2/3 120/2/3 119/2/3
f 122/2/3 120/2/3 121/2/3
f 123/1/3 89/1/3 72/1/3
f 124/1/3 117/1/3 111/1/3
f 124/1/3 118/1/3 117/1/3
f 125/1/3 122/1/3 121/1/3
f 126/2/3 120/2/3 122/2/3
f 126/1/3 122/1/3 125/1/3
f 127/1/3 125/1/3 121/1/3
f 127/2/3 126/2/3 125/2/3
f 128/2/3 120/2/3 126/2/3
f 128/2/3 126/2/3 127/2/3
f 129/1/3 127/1/3 121/1/3
f 129/1/3 121/1/3 57/1/3
f 129/1/3 128/1/3 127/1/3
f 130/2/3 120/2/3 128/2/3
f 130/1/3 128/1/3 129/1/3
f 131/1/3 129/1/3 57/1/3
f 131/2/3 130/2/3 129/2/3
f 132/2/3 120/2/3 130/2/3
f 132/2/3 130/2/3 131/2/3
f 132/1/3 67/1/3 120/1/3
f 133/1/3 131/1/3 57/1/3
f 133/1/3 132/1/3 131/1/3
f 134/1/3 67/1/3 132/1/3
f 134/1/3 132/1/3 133/1/3
f 135/2/3 134/2/3 133/2/3
f 136/2/3 134/2/3 135/2/3
f 137/2/3 134/2/3 136/2/3
f 138/2/3 134/2/3 137/2/3
f 139/1/3 67/1/3 134/1/3
f 140/1/3 69/1/3 68/1/3
f 141/1/3 69/1/3 140/1/3
f 142/1/3 71/1/3 70/1/3
f 143/1/3 71/1/3 142/1/3
f 144/1/3 123/1/3 72/1/3
f 144/1/3 124/1/3 123/1/3
f 145/1/3 133/1/3 57/1/3
f 145/2/3 135/2/3 133/2/3
f 146/1/3 136/1/3 135/1/3
f 146/2/3 135/2/3 145/2/3
f 147/2/3 137/2/3 136/2/3
f 147/1/3 136/1/3 146/1/3
f 148/1/3 138/1/3 137/1/3
f 148/2/3 137/2/3 147/2/3
f 149/2/3 134/2/3 138/2/3
f 149/1/3 138/1/3 148/1/3
f 150/1/3 143/1/3 142/1/3
f 150/2/3 134/2/3 149/2/3
f 150/1/3 141/1/3 140/1/3
f 150/1/3 139/1/3 134/1/3
f 150/1/3 144/1/3 143/1/3
f 150/1/3 140/1/3 139/1/3
f 150/1/3 142/1/3 141/1/3
f 151/1/3 149/1/3 148/1/3
f 151/1/3 147/1/3 146/1/3
f 151/1/3 150/1/3 149/1/3
f 151/1/3 146/1/3 145/1/3
f 151/1/3 145/1/3 57/1/3
f 151/1/3 148/1/3 147/1/3
f 152/1/3 144/1/3 150/1/3
f 152/1/3 150/1/3 151/1/3
f 152/1/3 124/1/3 144/1/3
f 152/1/3 118/1/3 124/1/3
f 152/1/3 58/1/3 118/1/3
f 163/2/3 160/2/3 159/2/3
f 164/2/3 162/2/3 161/2/3
f 165/2/3 163/2/3 159/2/3
f 165/2/3 164/2/3 163/2/3
f 166/2/3 162/2/3 164/2/3
f 166/2/3 164/2/3 165/2/3
f 167/2/3 162/2/3 166/2/3
f 168/2/3 162/2/3 167/2/3
f 169/2/3 165/2/3 159/2/3
f 170/2/3 165/2/3 169/2/3
f 171/2/3 154/2/3 153/2/3
f 172/2/3 154/2/3 171/2/3
f 173/2/3 156/2/3 155/2/3
f 174/2/3 156/2/3 173/2/3
f 175/2/3 158/2/3 157/2/3
f 176/2/3 158/2/3 175/2/3
f 177/1/4 178/1/4 179/1/4
f 179/1/4 178/1/4 180/1/4
f 183/1/5 182/1/5 181/1/5
f 184/1/5 182/1/5 183/1/5
f 187/1/5 186/1/5 185/1/5
f 188/1/5 186/1/5 187/1/5
f 191/1/5 190/1/5 189/1/5
f 192/1/5 190/1/5 191/1/5
f 195/1/5 194/1/5 193/1/5
f 196/1/5 194/1/5 195/1/5
f 201/1/5 198/1/5 197/1/5
f 202/1/5 198/1/5 201/1/5
f 203/1/5 200/1/5 199/1/5
f 204/1/5 200/1/5 203/1/5
f 207/1/5 206/1/5 205/1/5
f 208/1/5 206/1/5 207/1/5
f 209/1/6 210/1/6 211/1/6
f 211/1/6 210/1/6 212/1/6
f 213/1/6 214/1/6 215/1/6
f 215/1/6 214/1/6 216/1/6
f 217/1/6 218/1/6 219/1/6
f 219/1/6 218/1/6 220/1/6
f 221/1/6 222/1/6 223/1/6
f 223/1/6 222/1/6 224/1/6
f 225/1/6 226/1/6 229/1/6
f 229/1/6 226/1/6 230/1/6
f 227/1/6 228/1/6 231/1/6
f 231/1/6 228/1/6 232/1/6
f 233/1/6 234/1/6 235/1/6
f 235/1/6 234/1/6 236/1/6
